<svg width="22" height="22" viewBox="0 0 22 22" fill="none" xmlns="http://www.w3.org/2000/svg">
<path d="M17.1507 7.52583C17.0655 7.43992 16.9641 7.37172 16.8524 7.32518C16.7407 7.27864 16.6209 7.25468 16.4999 7.25468C16.3789 7.25468 16.2591 7.27864 16.1474 7.32518C16.0357 7.37172 15.9343 7.43992 15.8491 7.52583L11.6507 11.7242C11.5655 11.8101 11.4641 11.8783 11.3524 11.9248C11.2407 11.9714 11.1209 11.9953 10.9999 11.9953C10.8789 11.9953 10.7591 11.9714 10.6474 11.9248C10.5357 11.8783 10.4343 11.8101 10.3491 11.7242L6.15075 7.52583C6.06553 7.43992 5.96415 7.37172 5.85244 7.32518C5.74074 7.27864 5.62092 7.25468 5.49991 7.25468C5.3789 7.25468 5.25909 7.27864 5.14738 7.32518C5.03568 7.37172 4.9343 7.43992 4.84908 7.52583C4.67835 7.69758 4.58252 7.92991 4.58252 8.17208C4.58252 8.41425 4.67835 8.64658 4.84908 8.81833L9.05658 13.0258C9.57221 13.5408 10.2712 13.8301 10.9999 13.8301C11.7287 13.8301 12.4276 13.5408 12.9432 13.0258L17.1507 8.81833C17.3215 8.64658 17.4173 8.41425 17.4173 8.17208C17.4173 7.92991 17.3215 7.69758 17.1507 7.52583Z" fill="white"/>
</svg>
