<svg width="46" height="46" viewBox="0 0 46 46" fill="none" xmlns="http://www.w3.org/2000/svg">
<circle cx="23" cy="23" r="23" fill="url(#paint0_linear_111_18)"/>
<path d="M17.078 29V26.866L22.38 22.356C23.4653 21.4467 24.2133 20.6987 24.624 20.112C25.0493 19.5107 25.262 18.8727 25.262 18.198C25.262 17.4647 25.0273 16.8853 24.558 16.46C24.0887 16.02 23.4947 15.8 22.776 15.8C22.1013 15.8 21.4927 15.9833 20.95 16.35C20.422 16.7167 19.8427 17.3033 19.212 18.11L17.298 16.614C18.09 15.4993 18.904 14.6853 19.74 14.172C20.5907 13.644 21.6687 13.38 22.974 13.38C24.4847 13.38 25.7093 13.8053 26.648 14.656C27.5867 15.5067 28.056 16.6287 28.056 18.022C28.056 18.6233 27.9827 19.166 27.836 19.65C27.6893 20.1193 27.4253 20.6033 27.044 21.102C26.6773 21.586 26.274 22.0333 25.834 22.444C25.4087 22.84 24.8147 23.3533 24.052 23.984L20.884 26.624H28.21V29H17.078Z" fill="black"/>
<defs>
<linearGradient id="paint0_linear_111_18" x1="23" y1="0" x2="23" y2="46" gradientUnits="userSpaceOnUse">
<stop stop-color="white"/>
</linearGradient>
</defs>
</svg>
