<svg width="46" height="46" viewBox="0 0 46 46" fill="none" xmlns="http://www.w3.org/2000/svg">
<circle cx="23" cy="23" r="23" fill="white"/>
<path d="M22.842 29.264C20.3927 29.264 18.4273 28.362 16.946 26.558L18.838 24.798C19.982 26.1473 21.3313 26.822 22.886 26.822C23.6633 26.822 24.3013 26.6093 24.8 26.184C25.2987 25.744 25.548 25.1647 25.548 24.446C25.548 23.698 25.2253 23.1187 24.58 22.708C23.9493 22.2827 23.0913 22.07 22.006 22.07H20.752L20.312 20.376L24.47 15.954H17.804V13.6H27.99V15.624L23.7 20.024C25.0493 20.2147 26.142 20.6693 26.978 21.388C27.814 22.092 28.232 23.0967 28.232 24.402C28.232 25.8247 27.726 26.9907 26.714 27.9C25.7167 28.8093 24.426 29.264 22.842 29.264Z" fill="black"/>
</svg>
