<svg width="78" height="78" viewBox="0 0 78 78" fill="none" xmlns="http://www.w3.org/2000/svg">
<circle cx="39" cy="39" r="39" fill="#FFF9F4"/>
<path d="M52.7734 27.0839H48.3645C48.5345 26.4603 48.5366 25.8029 48.3707 25.1783C48.2048 24.5537 47.8767 23.984 47.4197 23.5271C46.7196 22.8412 45.7785 22.457 44.7984 22.457C43.8183 22.457 42.8772 22.8412 42.1771 23.5271L39.0001 26.7115L35.8323 23.5271C35.4882 23.1826 35.0796 22.9093 34.6298 22.7229C34.18 22.5364 33.6979 22.4404 33.211 22.4404C32.7241 22.4404 32.242 22.5364 31.7922 22.7229C31.3424 22.9093 30.9338 23.1826 30.5897 23.5271C30.1327 23.984 29.8046 24.5537 29.6387 25.1783C29.4728 25.8029 29.475 26.4603 29.645 27.0839H25.2267C24.4898 27.0839 23.783 27.3766 23.2619 27.8977C22.7408 28.4189 22.448 29.1256 22.448 29.8626V31.7151C22.4483 32.2655 22.6134 32.8032 22.9221 33.2589C23.2309 33.7145 23.669 34.0672 24.1801 34.2716V50.9255C24.1835 52.1528 24.6725 53.3288 25.5403 54.1965C26.4081 55.0643 27.5841 55.5534 28.8113 55.5568H49.1888C50.4171 55.5568 51.5951 55.0688 52.4636 54.2003C53.3321 53.3318 53.8201 52.1538 53.8201 50.9255V34.2901C54.3326 34.0814 54.7717 33.7254 55.0817 33.267C55.3917 32.8086 55.5586 32.2685 55.5614 31.7151V29.8626C55.5614 29.4969 55.4893 29.1348 55.349 28.7971C55.2088 28.4593 55.0033 28.1526 54.7443 27.8945C54.4853 27.6363 54.1779 27.4318 53.8396 27.2927C53.5014 27.1536 53.1391 27.0826 52.7734 27.0839ZM31.8957 24.8405C32.2428 24.4954 32.7124 24.3018 33.2018 24.3018C33.6912 24.3018 34.1607 24.4954 34.5078 24.8405L36.7493 27.0839H31.6179C31.4066 26.7327 31.3192 26.3209 31.3696 25.9142C31.42 25.5075 31.6052 25.1295 31.8957 24.8405ZM37.1476 53.7043H28.8113C28.0744 53.7043 27.3676 53.4115 26.8465 52.8904C26.3253 52.3693 26.0326 51.6625 26.0326 50.9255V34.4939H37.1476V53.7043ZM37.1476 32.6414H25.2267C24.9811 32.6414 24.7455 32.5438 24.5718 32.3701C24.3981 32.1964 24.3005 31.9608 24.3005 31.7151V29.8626C24.3005 29.6169 24.3981 29.3814 24.5718 29.2076C24.7455 29.0339 24.9811 28.9364 25.2267 28.9364H37.1476V32.6414ZM43.5017 24.8405C43.8203 24.5237 44.2432 24.3335 44.6916 24.3054C45.14 24.2772 45.5834 24.413 45.9392 24.6874C46.2949 24.9618 46.5388 25.3562 46.6255 25.797C46.7121 26.2379 46.6356 26.6952 46.4101 27.0839H41.2601L43.5017 24.8405ZM51.9676 50.9255C51.9676 51.6625 51.6748 52.3693 51.1537 52.8904C50.6326 53.4115 49.9258 53.7043 49.1888 53.7043H40.8526V34.4939H51.9676V50.9255ZM53.7089 31.7151C53.7089 31.9608 53.6113 32.1964 53.4376 32.3701C53.2639 32.5438 53.0283 32.6414 52.7827 32.6414H40.8526V28.9364H52.7827C53.0283 28.9364 53.2639 29.0339 53.4376 29.2076C53.6113 29.3814 53.7089 29.6169 53.7089 29.8626V31.7151Z" fill="#704174"/>
</svg>
